<svg xmlns="http://www.w3.org/2000/svg" width="682.9296705457897" height="491.93751017252583" viewBox="0 0 682.9296705457897 491.93751017252583">

  <defs>
    <style>
      text { font-family: system-ui, -apple-system, "Segoe UI", sans-serif; font-size: 12px; fill: #111827; }
      .shape-rect { fill: #ffffff; stroke: #9ca3af; stroke-width: 1; }
      .shape-entity { fill: #ffffff; stroke: #111827; stroke-width: 2; }
      .shape-circle { fill: #ffffff; stroke: #9ca3af; stroke-width: 1; }
      .shape-pill { fill: #ffffff; stroke: #9ca3af; stroke-width: 1; }
      .shape-db { fill: #ffffff; stroke: #9ca3af; stroke-width: 1; }
      .conn { stroke: #111827; stroke-width: 2; fill: none; }
    </style>
    <marker id="arrow-end" markerWidth="10" markerHeight="7" refX="10" refY="3.5"
            orient="auto" markerUnits="strokeWidth">
      <polygon points="0 0, 10 3.5, 0 7" fill="#111827"/>
    </marker>
    <marker id="arrow-start" markerWidth="10" markerHeight="7" refX="0" refY="3.5"
            orient="auto" markerUnits="strokeWidth">
      <polygon points="10 0, 0 3.5, 10 7" fill="#111827"/>
    </marker>
  </defs>
        
<rect class="shape-entity" x="250.0234646267361" y="241.18748982747383" width="159.98438517252598" height="210.750020345052" />
<line x1="250.0234646267361" y1="272.6874796549478" x2="410.0078497992621" y2="272.6874796549478" stroke="#e5e7eb" stroke-width="1"/>
<text x="330.0156572129991" y="261.6874796549478" text-anchor="middle">Producto</text>
<text x="277.85938856336793" y="292.9062245686848">id</text>
<text x="277.85938856336793" y="317.3749474419486">nombre_producto</text>
<text x="277.85938856336793" y="341.8437042236327">descripcion</text>
<text x="277.85938856336793" y="366.31248643663173">precio</text>
<text x="277.85938856336793" y="390.7812516954209">stock</text>
<text x="277.85938856336793" y="415.2499745686847">imagen</text>
<rect class="shape-entity" x="40" y="40" width="159.98438517252598" height="210.7499694824218" />
<line x1="40" y1="71.49998982747398" x2="199.98438517252598" y2="71.49998982747398" stroke="#e5e7eb" stroke-width="1"/>
<text x="119.99219258626299" y="60.49998982747399" text-anchor="middle">Cliente</text>
<text x="74.75002034505206" y="91.71873474121091">id</text>
<text x="74.75002034505206" y="116.1874745686849">nombre_cliente</text>
<text x="74.75002034505206" y="140.6562143961588">apellidos</text>
<text x="74.75002034505206" y="165.12495422363267">email</text>
<text x="74.75002034505206" y="189.59371948242176">direccion</text>
<text x="74.75002034505206" y="214.0624847412108">telefono</text>
<rect class="shape-entity" x="265.6796603732638" y="45.99995930989587" width="159.98438517252598" height="137.34374999999994" />
<line x1="265.6796603732638" y1="77.49999999999999" x2="425.6640455457898" y2="77.49999999999999" stroke="#e5e7eb" stroke-width="1"/>
<text x="345.6718529595268" y="66.5" text-anchor="middle">Pedido</text>
<text x="317.82029215494777" y="97.71874491373703">id</text>
<text x="317.82029215494777" y="122.18748474121091">fecha</text>
<text x="317.82029215494777" y="146.6562245686849">cliente_id</text>
<rect class="shape-entity" x="482.9452853732637" y="128.85152180989581" width="159.98438517252598" height="161.81248982747388" />
<line x1="482.9452853732637" y1="160.35151163736973" x2="642.9296705457897" y2="160.35151163736973" stroke="#e5e7eb" stroke-width="1"/>
<text x="562.9374779595266" y="149.35153706868482" text-anchor="middle">LineasPedido</text>
<text x="528.1718207465276" y="180.57028198242176">id</text>
<text x="528.1718207465276" y="205.0390472412108">pedido_id</text>
<text x="528.1718207465276" y="229.5077870686848">cantidad</text>
<text x="528.1718207465276" y="253.97652689615867">producto_id</text>
<path class="conn" d="M 297.835964626736 140.41966262712828 L 185.19529554578986 89.95529668276748" marker-end="url(#arrow-end)" />
<path class="conn" d="M 508.18752712673586 251.65100722030473 L 402.1093580457898 287.2317272903287" marker-end="url(#arrow-end)" />
<path class="conn" d="M 508.18752712673586 196.7421961724612 L 393.4844122992621 98.01559598248667" marker-end="url(#arrow-end)" />
</svg>