<svg xmlns="http://www.w3.org/2000/svg" width="1079.5499877929688" height="1429.3833618164062" viewBox="0 0 1079.5499877929688 1429.3833618164062">

  <defs>
    <style>
      text { font-family: system-ui, -apple-system, "Segoe UI", sans-serif; font-size: 12px; fill: #111827; }
      .shape-rect { fill: #ffffff; stroke: #9ca3af; stroke-width: 1; }
      .shape-entity { fill: #ffffff; stroke: #111827; stroke-width: 2; }
      .shape-circle { fill: #ffffff; stroke: #9ca3af; stroke-width: 1; }
      .shape-pill { fill: #ffffff; stroke: #9ca3af; stroke-width: 1; }
      .shape-db { fill: #ffffff; stroke: #9ca3af; stroke-width: 1; }
      .conn { stroke: #111827; stroke-width: 2; fill: none; }
    </style>
    <marker id="arrow-end" markerWidth="10" markerHeight="7" refX="10" refY="3.5"
            orient="auto" markerUnits="strokeWidth">
      <polygon points="0 0, 10 3.5, 0 7" fill="#111827"/>
    </marker>
    <marker id="arrow-start" markerWidth="10" markerHeight="7" refX="0" refY="3.5"
            orient="auto" markerUnits="strokeWidth">
      <polygon points="10 0, 0 3.5, 10 7" fill="#111827"/>
    </marker>
  </defs>
        
<rect class="shape-rect" x="40.88330078125" y="1219.816650390625" width="120" height="40" rx="4" ry="4" />
<text x="100.88330078125" y="1243.816650390625" text-anchor="middle">Página principal</text>
<rect class="shape-rect" x="281.54998779296875" y="1084.2666625976562" width="120" height="40" rx="4" ry="4" />
<text x="341.54998779296875" y="1108.2666625976562" text-anchor="middle">Carta</text>
<rect class="shape-rect" x="263.6666564941406" y="1194.0499877929688" width="120" height="40" rx="4" ry="4" />
<text x="323.6666564941406" y="1218.0499877929688" text-anchor="middle">Carrito</text>
<rect class="shape-rect" x="265.6666564941406" y="1267.2666625976562" width="120" height="40" rx="4" ry="4" />
<text x="325.6666564941406" y="1291.2666625976562" text-anchor="middle">Contacto</text>
<rect class="shape-rect" x="261.33331298828125" y="1349.3833618164062" width="120" height="40" rx="4" ry="4" />
<text x="321.33331298828125" y="1373.3833618164062" text-anchor="middle">Registro</text>
<rect class="shape-rect" x="655.316650390625" y="1006.25" width="120" height="40" rx="4" ry="4" />
<text x="715.316650390625" y="1030.25" text-anchor="middle">Pedido realizado</text>
<rect class="shape-rect" x="488.88330078125" y="989.0666656494141" width="128.5166778564453" height="40" rx="20" ry="20" />
<text x="553.1416397094727" y="1013.0666656494141" text-anchor="middle">Si estás registrado</text>
<rect class="shape-rect" x="744.9833374023438" y="1058.5" width="146.51666259765625" height="40" rx="20" ry="20" />
<text x="818.2416687011719" y="1082.5" text-anchor="middle">Si no estás registrado</text>
<rect class="shape-rect" x="707.88330078125" y="1133.816650390625" width="120" height="40" rx="4" ry="4" />
<text x="767.88330078125" y="1157.816650390625" text-anchor="middle">Registro</text>
<rect class="shape-rect" x="581.6666870117188" y="1217.6000061035156" width="120" height="40" rx="4" ry="4" />
<text x="641.6666870117188" y="1241.6000061035156" text-anchor="middle">Iniciar sesión</text>
<rect class="shape-rect" x="524.3333129882812" y="1315.2666625976562" width="120" height="40" rx="4" ry="4" />
<text x="584.3333129882812" y="1339.2666625976562" text-anchor="middle">Crear cuenta</text>
<rect class="shape-rect" x="849.3333129882812" y="40" width="120" height="40" rx="20" ry="20" />
<text x="909.3333129882812" y="64" text-anchor="middle">Si está vacío</text>
<rect class="shape-rect" x="40" y="1106.2666625976562" width="120" height="40" rx="4" ry="4" />
<text x="100" y="1130.2666625976562" text-anchor="middle">FRONT</text>
<rect class="shape-rect" x="704.4500122070312" y="867.3833312988281" width="120" height="40" rx="4" ry="4" />
<text x="764.4500122070312" y="891.3833312988281" text-anchor="middle">BACK</text>
<rect class="shape-rect" x="895.5499877929688" y="981.8166656494141" width="120" height="40" rx="4" ry="4" />
<text x="955.5499877929688" y="1005.8166656494141" text-anchor="middle">Historial</text>
<rect class="shape-rect" x="815.5499877929688" y="771.8166656494141" width="120" height="40" rx="4" ry="4" />
<text x="875.5499877929688" y="795.8166656494141" text-anchor="middle">Comanda</text>
<rect class="shape-rect" x="404.45001220703125" y="887.3833312988281" width="120" height="40" rx="4" ry="4" />
<text x="464.45001220703125" y="911.3833312988281" text-anchor="middle">Base de datos</text>
<rect class="shape-rect" x="896.6666870117188" y="906.2666778564453" width="120" height="40" rx="4" ry="4" />
<text x="956.6666870117188" y="930.2666778564453" text-anchor="middle">Pedir cuenta</text>
<rect class="shape-rect" x="919.5499877929686" y="827.9833374023438" width="120" height="40" rx="4" ry="4" />
<text x="979.5499877929686" y="851.9833374023438" text-anchor="middle">Entregar cuenta</text>
<path class="conn" d="M 136.39295901586365 1219.816650390625 L 306.0403295583551 1124.2666625976562" marker-end="url(#arrow-end)" />
<path class="conn" d="M 160.88330078125 1232.8771743650832 L 263.6666564941406 1220.9894638185106" marker-end="url(#arrow-end)" />
<path class="conn" d="M 160.88330078125 1252.482182157391 L 265.6666564941406 1274.6011308308903" marker-end="url(#arrow-end)" />
<path class="conn" d="M 134.91210490557324 1259.816650390625 L 287.304508863958 1349.3833618164062" marker-end="url(#arrow-end)" />
<path class="conn" d="M 386.00201693148665 1084.2666625976562 L 508.68961057095476 1029.066665649414" marker-end="url(#arrow-end)" />
<path class="conn" d="M 401.54998779296875 1101.023476660545 L 744.9833374023438 1082.4598398307432" marker-end="url(#arrow-end)" />
<path class="conn" d="M 804.8692290988419 1098.5 L 781.25574038358 1133.816650390625" marker-end="url(#arrow-end)" />
<path class="conn" d="M 369.94846203962743 1349.3833618164062 L 593.0515379603726 1257.6000061035156" marker-end="url(#arrow-end)" />
<path class="conn" d="M 381.33331298828125 1361.6000844280984 L 524.3333129882812 1343.049939985964" marker-end="url(#arrow-end)" />
<path class="conn" d="M 581.6666870117188 1233.156606848701 L 383.6666564941406 1218.4933870477835" marker-end="url(#arrow-end)" />
<path class="conn" d="M 541.324930368622 1315.2666625976562 L 366.6750391137999 1234.0499877929688" marker-end="url(#arrow-end)" />
<path class="conn" d="M 100.15557919440036 1146.2666625976562 L 100.72772158684964 1219.816650390625" marker-end="url(#arrow-end)" />
<path class="conn" d="M 722.3929866023241 1006.25 L 757.3736759953322 907.3833312988281" marker-end="url(#arrow-end)" />
<path class="conn" d="M 775.316650390625 1020.147599405282 L 895.5499877929686 1007.9190662441321" marker-end="url(#arrow-end)" />
<path class="conn" d="M 787.7007921376626 867.3833312988281 L 852.2992078623374 811.8166656494141" marker-end="url(#arrow-end)" />
<path class="conn" d="M 451.96545867948805 927.3833312988281 L 354.034541320512 1084.2666625976562" marker-end="url(#arrow-end)" />
<path class="conn" d="M 524.4500122070312 903.3833312988281 L 704.4500122070312 891.3833312988281" marker-end="url(#arrow-end)" />
<path class="conn" d="M 955.8456064294163 981.8166656494141 L 956.371068375271 946.2666778564453" marker-end="url(#arrow-end)" />
<path class="conn" d="M 338.29205563122883 1124.2666625976562 L 326.92458865588054 1194.0499877929688" marker-end="url(#arrow-end)" />
<path class="conn" d="M 530.752014952135 1029.066665649414 L 346.05628125147825 1194.0499877929688" marker-end="url(#arrow-end)" />
<path class="conn" d="M 707.88330078125 1161.9523208807311 L 383.6666564941406 1205.9143173028626" marker-end="url(#arrow-end)" />
<path class="conn" d="M 365.37592373096714 1194.0499877929688 L 673.6073831537985 1046.25" marker-end="url(#arrow-end)" />
<path class="conn" d="M 896.6666870117186 914.1293292324115 L 824.4500122070312 899.520679922862" marker-end="url(#arrow-end)" />
<path class="conn" d="M 824.4500122070312 876.3930946549165 L 919.5499877929686 858.9735740462554" marker-end="url(#arrow-end)" />
</svg>