<svg xmlns="http://www.w3.org/2000/svg" width="895.9249877929685" height="418.1500040690103" viewBox="0 0 895.9249877929685 418.1500040690103">

  <defs>
    <style>
      text { font-family: system-ui, -apple-system, "Segoe UI", sans-serif; font-size: 12px; fill: #111827; }
      .shape-rect { fill: #ffffff; stroke: #9ca3af; stroke-width: 1; }
      .shape-entity { fill: #ffffff; stroke: #111827; stroke-width: 2; }
      .shape-circle { fill: #ffffff; stroke: #9ca3af; stroke-width: 1; }
      .shape-pill { fill: #ffffff; stroke: #9ca3af; stroke-width: 1; }
      .shape-db { fill: #ffffff; stroke: #9ca3af; stroke-width: 1; }
      .conn { stroke: #111827; stroke-width: 2; fill: none; }
    </style>
    <marker id="arrow-end" markerWidth="10" markerHeight="7" refX="10" refY="3.5"
            orient="auto" markerUnits="strokeWidth">
      <polygon points="0 0, 10 3.5, 0 7" fill="#111827"/>
    </marker>
    <marker id="arrow-start" markerWidth="10" markerHeight="7" refX="0" refY="3.5"
            orient="auto" markerUnits="strokeWidth">
      <polygon points="10 0, 0 3.5, 10 7" fill="#111827"/>
    </marker>
  </defs>
        
<rect class="shape-entity" x="329.54998779296864" y="40" width="219.99999999999994" height="174.40000406901038" />
<line x1="329.54998779296864" y1="66.4000015258789" x2="549.5499877929685" y2="66.4000015258789" stroke="#e5e7eb" stroke-width="1"/>
<text x="439.54998779296864" y="58.00000127156576" text-anchor="middle">Persona</text>
<text x="413.45001220703114" y="86.3999989827474">id</text>
<text x="413.45001220703114" y="110.40000406901041">nombre</text>
<text x="413.45001220703114" y="134.4000040690104">apellidos</text>
<text x="413.45001220703114" y="158.40000406901038">email</text>
<text x="413.45001220703114" y="182.40000406901038">NUSS</text>
<rect class="shape-entity" x="193.4249877929687" y="251.74999999999994" width="219.99999999999994" height="126.40000406901038" />
<line x1="193.4249877929687" y1="278.1499964396158" x2="413.42498779296864" y2="278.1499964396158" stroke="#e5e7eb" stroke-width="1"/>
<text x="303.42498779296864" y="269.7499961853027" text-anchor="middle">Alumno</text>
<text x="276.1375122070312" y="298.1500040690103">id</text>
<text x="276.1375122070312" y="322.1500040690103">matricula</text>
<text x="276.1375122070312" y="346.1500040690103">NIA</text>
<rect class="shape-entity" x="477.17498779296864" y="254.87499999999994" width="219.99999999999994" height="102.4000040690104" />
<line x1="477.17498779296864" y1="281.2749964396158" x2="697.1749877929685" y2="281.2749964396158" stroke="#e5e7eb" stroke-width="1"/>
<text x="587.1749877929686" y="272.8749961853027" text-anchor="middle">Profesor</text>
<text x="556.7500203450519" y="301.2750040690103">id</text>
<text x="556.7500203450519" y="325.2750040690103">asignatura</text>
<rect class="shape-rect" x="735.9249877929685" y="282.3749999999999" width="119.99999999999997" height="39.999999999999986" rx="4" ry="4" />
<text x="795.9249877929685" y="306.3749999999999" text-anchor="middle">Objeto</text>
<rect class="shape-rect" x="40" y="297.20001220703114" width="119.99999999999997" height="39.999999999999986" rx="4" ry="4" />
<text x="99.99999999999999" y="321.20001220703114" text-anchor="middle">Objeto</text>
<path class="conn" d="M 376.32708352161296 214.40000406901038 L 349.24709312957066 251.7499999999999" marker-end="url(#arrow-end)" />
<path class="conn" d="M 511.51588744548474 214.40000406901038 L 544.9197799643517 254.8749999999999" marker-end="url(#arrow-end)" />
<path class="conn" d="M 697.1749877929685 304.12530036362807 L 735.9249877929685 303.43847363866007" marker-end="url(#arrow-end)" />
<path class="conn" d="M 193.42498779296864 316.1666722266142 L 159.99999999999994 316.5363739204262" marker-end="url(#arrow-end)" />
</svg>